<?xml version="1.0" encoding="UTF-8"?><svg id="Layer_1" xmlns="http://www.w3.org/2000/svg" width="70" height="64" viewBox="0 0 70 64"><defs><style>.cls-1{fill:#593a97;}.cls-1,.cls-2{stroke-width:0px;}.cls-2{fill:#ad94e0;}</style></defs><path class="cls-2" d="m35,61.99c-3.36,0-6.59-2.39-9.09-6.73L4.26,17.76C1.75,13.42,1.29,9.42,2.97,6.52S8.33,2.01,13.35,2.01h43.3c5.01,0,8.7,1.6,10.38,4.51s1.22,6.9-1.29,11.24l-21.65,37.5c-2.51,4.34-5.74,6.73-9.09,6.73Z"/><path class="cls-1" d="m56.65,4.01c4.21,0,7.36,1.28,8.65,3.51,1.29,2.23.82,5.6-1.29,9.24l-10.83,18.75-10.83,18.75c-2.1,3.64-4.79,5.73-7.36,5.73s-5.26-2.09-7.36-5.73l-10.83-18.75L5.99,16.76c-2.1-3.64-2.57-7.01-1.29-9.24,1.29-2.23,4.44-3.51,8.65-3.51h43.3M56.65,0H13.35C1.44,0-3.43,8.45,2.52,18.76c5.95,10.31,15.7,27.19,21.65,37.5,2.98,5.16,6.9,7.73,10.83,7.73s7.85-2.58,10.83-7.73c5.95-10.31,15.7-27.19,21.65-37.5C73.43,8.45,68.56,0,56.65,0h0Z"/></svg>